<svg width="14" height="16" viewBox="0 0 14 16" fill="none" xmlns="http://www.w3.org/2000/svg">
<path d="M11.8009 1.94087C9.1013 -0.646956 4.72441 -0.646956 2.02483 1.94087C1.38388 2.55109 0.874575 3.28003 0.526851 4.08482C0.179127 4.88961 0 5.75402 0 6.62725C0 7.50047 0.179127 8.36488 0.526851 9.16967C0.874575 9.97446 1.38388 10.7034 2.02483 11.3136L6.91242 16L11.8009 11.3136C12.4418 10.7034 12.9511 9.97446 13.2989 9.16967C13.6466 8.36488 13.8257 7.50047 13.8257 6.62725C13.8257 5.75402 13.6466 4.88961 13.2989 4.08482C12.9511 3.28003 12.4418 2.55109 11.8009 1.94087ZM6.91242 8.84201C6.33518 8.84201 5.79336 8.62306 5.38462 8.22558C4.97998 7.83042 4.75274 7.29497 4.75274 6.73672C4.75274 6.17847 4.97998 5.64302 5.38462 5.24786C5.79249 4.85038 6.33518 4.63143 6.91242 4.63143C7.48967 4.63143 8.03235 4.85038 8.44023 5.24786C8.84486 5.64302 9.07211 6.17847 9.07211 6.73672C9.07211 7.29497 8.84486 7.83042 8.44023 8.22558C8.03235 8.62306 7.48967 8.84201 6.91242 8.84201Z" fill="#E6E6E6"/>
</svg>
