<svg width="16" height="16" viewBox="0 0 16 16" fill="none" xmlns="http://www.w3.org/2000/svg">
<path d="M14.675 12.9193L11.1544 9.3543C11.0787 9.27886 10.9804 9.23105 10.8749 9.21838C10.7694 9.20571 10.6628 9.2289 10.5717 9.2843C9.93671 9.67341 9.46293 10.2829 9.23853 10.9993C9.12497 11.3593 8.7102 11.5243 8.38924 11.3293L8.3843 11.3243L8.37937 11.3193C6.83758 10.3822 5.54712 9.07552 4.62174 7.5143C4.62174 7.5093 4.6168 7.5043 4.6168 7.5043C4.41929 7.1793 4.58223 6.7593 4.93775 6.6443C5.64677 6.41998 6.24957 5.93949 6.6314 5.2943C6.74497 5.1043 6.71534 4.8643 6.56227 4.7043L3.04165 1.1393C2.96595 1.06386 2.86762 1.01605 2.76215 1.00338C2.65668 0.990707 2.55004 1.0139 2.459 1.0693C2.02858 1.33094 1.66919 1.69689 1.41318 2.13417C1.15718 2.57146 1.01261 3.06636 0.992487 3.5743V3.5793C0.987549 3.6293 0.987549 3.6793 0.987549 3.7293C0.987549 3.7993 0.992487 3.8643 0.997424 3.9293C1.05618 5.90921 1.61552 7.84077 2.62195 9.5393C3.54531 11.0993 4.839 12.4093 6.37958 13.3443L6.38451 13.3493C8.0831 14.3843 10.0187 14.9493 11.9987 14.9943C12.0382 14.9943 12.0777 14.9993 12.1172 14.9993H12.3938V14.9893C12.8738 14.948 13.3373 14.7924 13.7466 14.5352C14.1559 14.278 14.4994 13.9265 14.7491 13.5093C14.8577 13.3193 14.8281 13.0743 14.675 12.9193Z" fill="#E6E6E6"/>
</svg>
