<svg width="25" height="24" viewBox="0 0 25 24" fill="none" xmlns="http://www.w3.org/2000/svg">
<path d="M12.4999 2C6.74992 2 2.08325 6.48 2.08325 12C2.08325 17.52 6.74992 22 12.4999 22C18.2499 22 22.9166 17.52 22.9166 12C22.9166 6.48 18.2499 2 12.4999 2ZM17.3333 8.8C17.177 10.38 16.4999 14.22 16.1562 15.99C16.0103 16.74 15.7187 16.99 15.4478 17.02C14.8437 17.07 14.3853 16.64 13.802 16.27C12.8853 15.69 12.3645 15.33 11.4791 14.77C10.4478 14.12 11.1145 13.76 11.7083 13.18C11.8645 13.03 14.5312 10.7 14.5833 10.49C14.5905 10.4582 14.5895 10.4252 14.5804 10.3938C14.5714 10.3624 14.5545 10.3337 14.5312 10.31C14.4687 10.26 14.3853 10.28 14.3124 10.29C14.2187 10.31 12.7603 11.24 9.91659 13.08C9.49992 13.35 9.12492 13.49 8.79159 13.48C8.41659 13.47 7.70825 13.28 7.177 13.11C6.52075 12.91 6.01034 12.8 6.052 12.45C6.07284 12.27 6.33325 12.09 6.82284 11.9C9.8645 10.63 11.8853 9.79 12.8958 9.39C15.7916 8.23 16.3853 8.03 16.7812 8.03C16.8645 8.03 17.0624 8.05 17.1874 8.15C17.2916 8.23 17.3228 8.34 17.3333 8.42C17.3228 8.48 17.3437 8.66 17.3333 8.8Z" fill="#E6E6E6"/>
</svg>
