<svg width="86" height="34" viewBox="0 0 86 34" fill="none" xmlns="http://www.w3.org/2000/svg">
<path fill-rule="evenodd" clip-rule="evenodd" d="M10.0133 2.53809L18.1509 16.6352C20.02 15.5561 22.2411 15.2637 24.3257 15.8222C26.4104 16.3808 28.1878 17.7445 29.2669 19.6135L29.412 19.8658C30.4523 21.6682 30.734 23.8099 30.1953 25.82C29.6567 27.83 28.3416 29.5438 26.5394 30.5844C25.5384 31.1623 24.3487 31.319 23.2322 31.0199C22.1156 30.7207 21.1636 29.9904 20.5854 28.9894L16.2752 21.5245L11.965 28.9894C11.3868 29.9904 10.4348 30.7207 9.31823 31.0199C8.20167 31.319 7.01202 31.1623 6.01093 30.5844C4.20878 29.5438 2.89373 27.83 2.35503 25.82C1.81633 23.8099 2.0981 21.6682 3.13835 19.8658L3.28347 19.6135C4.23916 17.9579 5.74723 16.6915 7.54322 16.0366C9.3392 15.3816 11.3084 15.3799 13.1056 16.0316L8.18503 7.50882C7.73542 6.73005 7.61358 5.80458 7.84631 4.93598C8.07904 4.06738 8.64728 3.3268 9.42602 2.87715L10.0133 2.53809ZM6.80706 21.6479L6.66194 21.9002C6.16122 22.768 6.02567 23.7992 6.2851 24.767C6.54452 25.7347 7.17768 26.5598 8.04534 27.0608C8.18368 27.1422 8.36135 27.0934 8.44137 26.955L12.3651 20.1601C11.4307 19.6205 10.3203 19.474 9.27796 19.7531C8.23566 20.0321 7.34687 20.7137 6.80706 21.6479ZM20.1853 20.1588L24.109 26.9537C24.189 27.0934 24.3667 27.1408 24.505 27.0622C24.9348 26.8141 25.3116 26.4838 25.6137 26.0901C25.9158 25.6964 26.1375 25.2471 26.2659 24.7677C26.3944 24.2884 26.4272 23.7884 26.3624 23.2964C26.2976 22.8044 26.1366 22.33 25.8884 21.9002L25.7433 21.6479C25.2037 20.7134 24.3151 20.0316 23.2727 19.7523C22.2304 19.473 21.1198 19.6192 20.1853 20.1588ZM22.5371 2.53809L23.1244 2.87715C23.8685 3.3066 24.4218 4.00251 24.6726 4.82426C24.9233 5.646 24.8528 6.53229 24.4752 7.30402L24.3667 7.50882L20.184 14.7513L17.8349 10.6825L22.5371 2.53809Z" fill="#E6E6E6"/>
<path d="M79.2495 30.5627V18.7262H81.9543V20.6989H82.0776C82.2934 20.0157 82.6633 19.4891 83.1873 19.1192C83.7165 18.7442 84.3201 18.5566 84.9983 18.5566C85.1524 18.5566 85.3245 18.5643 85.5146 18.5798C85.7098 18.59 85.8716 18.608 86 18.6337V21.1998C85.8819 21.1587 85.6944 21.1228 85.4375 21.0919C85.1858 21.056 84.9417 21.038 84.7054 21.038C84.1968 21.038 83.7396 21.1485 83.3337 21.3694C82.933 21.5851 82.6171 21.8857 82.3859 22.271C82.1547 22.6563 82.0391 23.1007 82.0391 23.6041V30.5627H79.2495Z" fill="#F3F3F3"/>
<path d="M71.6262 30.7941C70.4394 30.7941 69.4145 30.5475 68.5515 30.0543C67.6935 29.556 67.0334 28.8522 66.571 27.9429C66.1086 27.0284 65.8774 25.9521 65.8774 24.714C65.8774 23.4965 66.1086 22.4279 66.571 21.5083C67.0385 20.5836 67.6909 19.8643 68.5283 19.3506C69.3657 18.8317 70.3495 18.5723 71.4798 18.5723C72.2093 18.5723 72.8977 18.6904 73.545 18.9267C74.1974 19.1579 74.7728 19.5175 75.2712 20.0056C75.7746 20.4936 76.1702 21.1153 76.4579 21.8705C76.7456 22.6205 76.8894 23.5144 76.8894 24.5522V25.4076H67.1875V23.5273H74.2154C74.2103 22.993 74.0947 22.5178 73.8687 22.1017C73.6426 21.6804 73.3267 21.349 72.9208 21.1076C72.5201 20.8661 72.0526 20.7454 71.5183 20.7454C70.948 20.7454 70.4471 20.8841 70.0156 21.1615C69.5841 21.4338 69.2476 21.7934 69.0061 22.2404C68.7698 22.6822 68.6491 23.1677 68.6439 23.6968V25.3382C68.6439 26.0266 68.7698 26.6174 69.0215 27.1106C69.2733 27.5987 69.6252 27.9737 70.0773 28.2357C70.5293 28.4926 71.0585 28.621 71.6647 28.621C72.0706 28.621 72.4379 28.5645 72.7667 28.4515C73.0955 28.3333 73.3806 28.1612 73.6221 27.9352C73.8635 27.7091 74.0459 27.4291 74.1692 27.0952L76.7738 27.388C76.6094 28.0764 76.2961 28.6775 75.8337 29.1913C75.3765 29.6999 74.7908 30.0954 74.0767 30.378C73.3626 30.6554 72.5458 30.7941 71.6262 30.7941Z" fill="#F3F3F3"/>
<path d="M52.8406 30.5623V14.7803H55.6302V20.6831H55.7458C55.8896 20.3954 56.0925 20.0898 56.3545 19.7661C56.6166 19.4373 56.971 19.1573 57.418 18.9261C57.8649 18.6898 58.4352 18.5717 59.1287 18.5717C60.0432 18.5717 60.8677 18.8054 61.6024 19.2729C62.3422 19.7353 62.9278 20.4211 63.3594 21.3304C63.7961 22.2346 64.0144 23.3443 64.0144 24.6595C64.0144 25.9592 63.8012 27.0638 63.3748 27.9731C62.9484 28.8824 62.3679 29.576 61.6332 30.0537C60.8986 30.5315 60.0663 30.7704 59.1364 30.7704C58.4583 30.7704 57.8958 30.6574 57.4488 30.4313C57.0019 30.2053 56.6422 29.933 56.37 29.6145C56.1028 29.2908 55.8948 28.9852 55.7458 28.6975H55.5839V30.5623H52.8406ZM55.5762 24.6441C55.5762 25.4095 55.6841 26.08 55.8999 26.6554C56.1208 27.2307 56.4367 27.6803 56.8477 28.0039C57.2639 28.3224 57.7673 28.4817 58.3581 28.4817C58.9746 28.4817 59.4909 28.3173 59.9071 27.9885C60.3232 27.6546 60.6366 27.1999 60.8472 26.6245C61.063 26.044 61.1709 25.3838 61.1709 24.6441C61.1709 23.9094 61.0655 23.257 60.8549 22.6867C60.6443 22.1165 60.3309 21.6695 59.9148 21.3459C59.4986 21.0222 58.9798 20.8604 58.3581 20.8604C57.7622 20.8604 57.2562 21.0171 56.84 21.3304C56.4239 21.6438 56.108 22.0831 55.8922 22.6482C55.6816 23.2133 55.5762 23.8786 55.5762 24.6441Z" fill="#F3F3F3"/>
<path d="M44.1135 30.5627V18.7262H46.8184V20.6989H46.9417C47.1574 20.0157 47.5273 19.4891 48.0513 19.1192C48.5805 18.7442 49.1841 18.5566 49.8623 18.5566C50.0164 18.5566 50.1885 18.5643 50.3786 18.5798C50.5738 18.59 50.7356 18.608 50.8641 18.6337V21.1998C50.7459 21.1587 50.5584 21.1228 50.3015 21.0919C50.0498 21.056 49.8058 21.038 49.5694 21.038C49.0608 21.038 48.6036 21.1485 48.1978 21.3694C47.797 21.5851 47.4811 21.8857 47.2499 22.271C47.0187 22.6563 46.9031 23.1007 46.9031 23.6041V30.5627H44.1135Z" fill="#F3F3F3"/>
<path d="M35.0588 30.8018C34.3088 30.8018 33.6332 30.6683 33.0321 30.4011C32.4362 30.1288 31.9636 29.7281 31.6142 29.199C31.27 28.6698 31.0979 28.0174 31.0979 27.2416C31.0979 26.5738 31.2212 26.0215 31.4678 25.5848C31.7144 25.1481 32.0509 24.7988 32.4773 24.5368C32.9037 24.2748 33.384 24.077 33.9183 23.9434C34.4578 23.8047 35.0152 23.7045 35.5905 23.6429C36.2841 23.5709 36.8466 23.5067 37.2782 23.4502C37.7097 23.3886 38.0231 23.2961 38.2183 23.1728C38.4187 23.0444 38.5189 22.8466 38.5189 22.5794V22.5332C38.5189 21.9527 38.3468 21.5031 38.0026 21.1846C37.6583 20.8661 37.1626 20.7069 36.5153 20.7069C35.832 20.7069 35.29 20.8558 34.8893 21.1538C34.4937 21.4518 34.2266 21.8037 34.0879 22.2095L31.4832 21.8396C31.6887 21.1204 32.0278 20.5193 32.5004 20.0364C32.973 19.5484 33.551 19.1836 34.2343 18.9422C34.9176 18.6956 35.6727 18.5723 36.4999 18.5723C37.0701 18.5723 37.6378 18.6391 38.2029 18.7726C38.768 18.9062 39.2843 19.1271 39.7518 19.4353C40.2193 19.7385 40.5944 20.152 40.8769 20.676C41.1646 21.2 41.3085 21.8551 41.3085 22.6411V30.5629H38.6267V28.9369H38.5343C38.3647 29.2657 38.1259 29.574 37.8176 29.8617C37.5145 30.1442 37.1318 30.3729 36.6694 30.5475C36.2122 30.7171 35.6753 30.8018 35.0588 30.8018ZM35.7832 28.752C36.3432 28.752 36.8287 28.6416 37.2397 28.4206C37.6506 28.1946 37.9666 27.8966 38.1875 27.5267C38.4135 27.1568 38.5266 26.7536 38.5266 26.3169V24.9221C38.4392 24.994 38.2902 25.0608 38.0796 25.1224C37.8741 25.1841 37.6429 25.238 37.3861 25.2843C37.1292 25.3305 36.8749 25.3716 36.6232 25.4076C36.3714 25.4435 36.1531 25.4743 35.9681 25.5C35.552 25.5565 35.1796 25.649 34.8508 25.7775C34.522 25.9059 34.2625 26.0857 34.0724 26.3169C33.8824 26.5429 33.7873 26.8358 33.7873 27.1954C33.7873 27.7091 33.9748 28.097 34.3499 28.359C34.7249 28.621 35.2027 28.752 35.7832 28.752Z" fill="#F3F3F3"/>
</svg>
