<svg width="60" height="60" viewBox="0 0 60 60" fill="none" xmlns="http://www.w3.org/2000/svg">
<path d="M1.875 27.7788V41.625H42.3253V27.7788H1.875ZM38.5625 37.9327H5.63782V31.4712H38.5625V37.9327ZM45.1474 27.7788H48.9103V41.625H45.1474V27.7788ZM51.7324 27.7788H55.4952V41.625H51.7324V27.7788ZM45.3153 20.0827C44.8642 19.4149 44.6469 18.6212 44.6961 17.8215C44.7453 17.0218 45.0584 16.2595 45.5882 15.6498C46.6831 14.4002 47.3187 12.8259 47.3929 11.1795C47.467 9.53301 46.9756 7.90983 45.9972 6.57023L45.3094 5.625H41.0083L40.7943 5.775L42.9352 8.71615C43.4234 9.38461 43.6686 10.1945 43.6316 11.0161C43.5945 11.8376 43.2774 12.6232 42.7311 13.2467C41.6697 14.4686 41.0423 15.9963 40.9436 17.5989C40.845 19.2016 41.2805 20.7922 42.1844 22.1305L42.8862 23.1635H47.4087L45.3153 20.0827ZM53.7817 20.0827C53.3306 19.4149 53.1132 18.6212 53.1624 17.8215C53.2116 17.0218 53.5248 16.2595 54.0545 15.6498C55.1495 14.4002 55.785 12.8259 55.8592 11.1795C55.9334 9.53301 55.4419 7.90983 54.4636 6.57023L53.7757 5.625H49.4747L49.2607 5.775L51.4016 8.71615C51.8897 9.38461 52.1349 10.1945 52.0979 11.0161C52.0609 11.8376 51.7438 12.6232 51.1975 13.2467C50.136 14.4686 49.5086 15.9963 49.41 17.5989C49.3114 19.2016 49.7469 20.7922 50.6508 22.1305L51.3526 23.1635H55.875L53.7817 20.0827Z" fill="#F3F3F3"/>
</svg>
