<svg width="60" height="60" viewBox="0 0 60 60" fill="none" xmlns="http://www.w3.org/2000/svg">
<path d="M30 30V35M15 38.75C15 38.087 15.2634 37.4511 15.7322 36.9822C16.2011 36.5134 16.837 36.25 17.5 36.25H42.5C43.163 36.25 43.7989 36.5134 44.2678 36.9822C44.7366 37.4511 45 38.087 45 38.75C45 40.0761 44.4732 41.3479 43.5355 42.2855C42.5979 43.2232 41.3261 43.75 40 43.75H20C18.6739 43.75 17.4021 43.2232 16.4645 42.2855C15.5268 41.3479 15 40.0761 15 38.75ZM16.57 16.915C17.175 11.885 17.475 9.3725 18.93 7.655C19.3916 7.10978 19.9287 6.6333 20.525 6.24C22.4 5 24.935 5 30 5C35.065 5 37.5975 5 39.475 6.24C40.0713 6.6333 40.6084 7.10978 41.07 7.655C42.525 9.3725 42.8275 11.885 43.43 16.915L43.6575 18.8075C44.2825 24.0275 44.5975 26.6375 43.105 28.3175C41.6125 30 38.985 30 33.73 30H26.2725C21.015 30 18.3875 30 16.8975 28.3175C15.405 26.6375 15.7175 24.0275 16.3425 18.8075L16.57 16.915Z" stroke="#F3F3F3" stroke-width="3"/>
<path d="M30 55V50M30 50V43.75M30 50L31.165 50.29C32.3404 50.5838 33.4227 51.1695 34.3116 51.9929C35.2004 52.8162 35.8672 53.8505 36.25 55M30 50L28.835 50.29C27.6596 50.5838 26.5773 51.1695 25.6884 51.9929C24.7996 52.8162 24.1328 53.8505 23.75 55M15 40L12.8375 33.5125C12.655 32.9625 12.5625 32.6875 12.3875 32.3075C12.2717 32.0509 12.1381 31.8028 11.9875 31.565C10.85 29.69 9.335 28.75 5 28.75M45 40L47.1625 33.5125C47.345 32.9625 47.4375 32.6875 47.6125 32.3075C47.7925 31.925 47.8625 31.805 48.0125 31.565C49.1525 29.69 50.67 28.75 55 28.75" stroke="#F3F3F3" stroke-width="3" stroke-linecap="round"/>
</svg>
