<svg width="60" height="60" viewBox="0 0 60 60" fill="none" xmlns="http://www.w3.org/2000/svg">
<path d="M39.1949 28.7183C41.5293 28.7183 43.5022 30.2834 44.054 32.3833C44.0895 32.5246 44.0912 32.6717 44.059 32.8137C44.0268 32.9556 43.9615 33.0886 43.8682 33.2024C43.7749 33.3161 43.656 33.4078 43.5206 33.4702C43.3851 33.5327 43.2368 33.5643 43.0868 33.5628H41.5485C41.6803 33.1014 41.7001 32.6167 41.6063 32.1467C41.5125 31.6766 41.3076 31.234 41.0077 30.8536C40.7078 30.4731 40.3211 30.1651 39.8778 29.9537C39.4345 29.7423 38.9467 29.6332 38.4527 29.635C38.0323 29.633 37.6157 29.712 37.2271 29.8674C36.8385 30.0227 36.4856 30.2514 36.189 30.54C35.8924 30.8287 35.6579 31.1716 35.4992 31.5488C35.3405 31.926 35.2607 32.33 35.2646 32.7374C35.2646 33.0305 35.303 33.3057 35.3799 33.5628H35.0934C34.9725 33.5636 34.8529 33.5385 34.7431 33.4894C34.6334 33.4403 34.5361 33.3684 34.4583 33.2787C34.3804 33.1891 34.3239 33.0839 34.2928 32.9707C34.2617 32.8575 34.2567 32.739 34.2781 32.6237C34.503 31.5211 35.1164 30.5286 36.0134 29.8162C36.9104 29.1037 38.0351 28.7156 39.1949 28.7183ZM17.1915 32.3833C17.4694 31.3139 18.1146 30.3679 19.021 29.7009C19.9274 29.0339 21.041 28.6857 22.1788 28.7135C23.3166 28.7412 24.4107 29.1433 25.2814 29.8536C26.152 30.5639 26.7473 31.5402 26.9693 32.6218C26.9911 32.7374 26.9863 32.8563 26.9552 32.9698C26.9241 33.0834 26.8675 33.1889 26.7894 33.2788C26.7113 33.3687 26.6137 33.4408 26.5035 33.4899C26.3933 33.539 26.2733 33.5639 26.1521 33.5628H25.8675C25.9444 33.3057 25.9822 33.0305 25.9809 32.7374C25.9809 31.012 24.558 29.635 22.7909 29.635C22.297 29.6335 21.8094 29.7428 21.3664 29.9543C20.9234 30.1658 20.5369 30.4739 20.2372 30.8543C19.9375 31.2347 19.7328 31.6772 19.6391 32.1471C19.5454 32.617 19.5652 33.1015 19.697 33.5628H18.1587C18.0087 33.5643 17.8603 33.5327 17.7249 33.4702C17.5895 33.4078 17.4706 33.3161 17.3773 33.2024C17.284 33.0886 17.2187 32.9556 17.1865 32.8137C17.1543 32.6717 17.156 32.5246 17.1915 32.3833Z" fill="#F3F3F3"/>
<path d="M36.6124 32.7367C36.6122 32.3882 36.7193 32.0476 36.92 31.7584C37.0027 31.9634 37.2084 32.1087 37.4469 32.1087C37.5688 32.1075 37.6873 32.0689 37.7851 31.9983C37.883 31.9278 37.9553 31.8291 37.9916 31.7162C38.0279 31.6034 38.0264 31.4823 37.9873 31.3704C37.9481 31.2585 37.8734 31.1615 37.7738 31.0933C38.12 30.9614 38.4996 30.9355 38.8615 31.019C39.2234 31.1025 39.5503 31.2915 39.798 31.5604C40.0458 31.8293 40.2026 32.1653 40.2474 32.5231C40.2922 32.881 40.2228 33.2436 40.0485 33.5621H36.8239C36.6886 33.3064 36.6162 33.0239 36.6124 32.7367ZM22.7907 30.974C23.1049 30.9732 23.414 31.0512 23.6878 31.2004C23.9617 31.3496 24.1911 31.5649 24.3537 31.8254C24.5163 32.0859 24.6065 32.3828 24.6157 32.6871C24.6248 32.9914 24.5526 33.2928 24.4059 33.5621H21.1774C21.0435 33.3061 20.9725 33.0236 20.9698 32.7367C20.9698 32.4162 21.0582 32.1143 21.214 31.8553C21.2803 31.9566 21.379 32.0341 21.4951 32.0759C21.6111 32.1178 21.7381 32.1217 21.8566 32.087C21.9752 32.0524 22.0787 31.9812 22.1516 31.8841C22.2244 31.7871 22.2625 31.6697 22.26 31.5498C22.2603 31.4687 22.2424 31.3886 22.2075 31.3149C22.1727 31.2412 22.1217 31.1758 22.0581 31.1231C22.2891 31.0249 22.5385 30.9742 22.7907 30.974ZM18.3162 25.9227L17.0913 24.4973C16.6994 24.8101 16.4518 25.261 16.4029 25.7507C16.3787 25.9932 16.4041 26.2379 16.4775 26.4709C16.5509 26.7039 16.6709 26.9206 16.8308 27.1087C16.9906 27.2967 17.1871 27.4524 17.4091 27.5669C17.631 27.6813 17.874 27.7523 18.1243 27.7757C18.6297 27.8231 19.1338 27.674 19.5257 27.3611L19.5315 27.3556L19.5526 27.3407L19.7487 27.2102C19.941 27.0984 20.2372 26.9363 20.6294 26.7854C21.6944 26.3833 22.8517 26.2674 23.9791 26.45C24.4804 26.5266 24.9926 26.4071 25.4029 26.1178C25.8133 25.8284 26.0883 25.393 26.1673 24.9072C26.2463 24.4215 26.123 23.9252 25.8244 23.5275C25.5258 23.1299 25.0765 22.8634 24.5752 22.7868C22.7728 22.5022 20.9245 22.692 19.2238 23.3365C18.7008 23.5374 18.197 23.7825 17.7182 24.0688C17.5274 24.185 17.342 24.3094 17.1625 24.4414L17.1202 24.475L17.1029 24.488L17.0971 24.4936L17.0933 24.4954C17.0933 24.4954 17.0913 24.4973 18.3162 25.9227ZM43.9597 24.4973C44.3304 24.8161 44.5591 25.2617 44.5979 25.7405C44.6366 26.2193 44.4822 26.694 44.1673 27.0648C43.8523 27.4356 43.4013 27.6737 42.9089 27.7289C42.4166 27.7842 41.9213 27.6524 41.5272 27.3611L41.5003 27.3407C41.1626 27.1192 40.8017 26.9331 40.4235 26.7854C39.3585 26.3833 38.2012 26.2674 37.0738 26.45C36.8256 26.4879 36.5721 26.4781 36.3278 26.4211C36.0835 26.3641 35.8532 26.261 35.65 26.1178C35.4468 25.9745 35.2747 25.7939 35.1435 25.5862C35.0124 25.3785 34.9247 25.1478 34.8856 24.9072C34.8465 24.6667 34.8566 24.4211 34.9154 24.1843C34.9743 23.9476 35.0806 23.7244 35.2285 23.5275C35.3763 23.3306 35.5627 23.1639 35.7771 23.0368C35.9914 22.9097 36.2295 22.8248 36.4777 22.7868C38.2801 22.5022 40.1284 22.692 41.8291 23.3365C42.4713 23.5825 42.9771 23.8526 43.3347 24.0688C43.5255 24.185 43.7109 24.3094 43.8904 24.4414L43.9327 24.475L43.95 24.488L43.9558 24.4936L43.9597 24.4973ZM30.6226 45.1777C29.1055 45.1777 27.6806 44.8665 26.4846 44.3206C26.075 44.1398 25.6347 44.5442 25.8923 44.8665C26.8922 46.1894 28.6363 47.0707 30.6226 47.0707C32.6089 47.0707 34.353 46.1894 35.3529 44.8665C35.6105 44.5311 35.1702 44.1398 34.7606 44.3224C33.4621 44.8965 32.0499 45.189 30.6226 45.1795" fill="#F3F3F3"/>
<path d="M47.9034 11.1626L49.4417 11.9042C52.1338 13.2029 53.6721 16.1673 53.0952 19.3181L51.5588 26.991C52.894 27.6837 53.9885 28.7428 54.7052 30.0356C55.4219 31.3285 55.7288 32.7975 55.5875 34.2587C55.4463 35.7198 54.8631 37.1081 53.9111 38.2495C52.9591 39.3908 51.6806 40.2345 50.2359 40.6748L49.8936 45.6125L49.8898 45.6553C49.2264 52.7506 43.4193 57.7852 36.4643 57.7852H24.9501C17.7816 57.7852 12.1861 52.732 11.5227 45.6553L11.5188 45.6106L11.1862 40.727C9.71744 40.3173 8.40794 39.493 7.42466 38.3592C6.44139 37.2254 5.82889 35.8335 5.6653 34.361C5.50171 32.8885 5.79442 31.4022 6.50612 30.0916C7.21782 28.7809 8.31625 27.7054 9.66132 27.0022L8.08456 19.1318C7.69999 16.1673 9.23829 13.2029 11.9322 11.9042L13.4705 11.1626C14.432 10.6073 15.3934 9.86576 16.3548 9.12419L19.8179 5.60262C21.9331 3.75054 25.0116 3.19528 27.7036 4.49212C29.6501 5.04631 31.72 5.04631 33.6665 4.49212C36.5508 3.56607 39.8216 4.30579 42.131 6.34606L45.0153 9.12419C45.7844 10.0521 46.7459 10.6073 47.8996 11.1626M47.3977 25.9681C47.4775 24.9714 47.4537 23.9696 47.3266 22.9775C46.7555 22.2695 46.3594 21.3491 46.3594 20.4286V19.374C45.7556 17.9236 44.9113 16.5786 43.8596 15.3922C41.3022 14.8425 36.8546 14.1289 30.7802 14.1289C24.6078 14.1289 20.116 14.8649 17.5778 15.4183C16.594 16.5631 15.7929 17.8444 15.2011 19.2193V20.4305C15.2011 21.431 14.8877 22.4316 14.1243 23.162C14.0064 24.0812 13.975 25.0191 14.0301 25.9755L14.1647 27.945C14.1887 28.2925 14.1117 28.6396 13.9425 28.9469C13.7732 29.2542 13.5184 29.5094 13.2071 29.6834L17.9316 43.2517C18.1239 44.1833 19.2776 44.3697 19.8545 43.8107L21.3928 42.5064C22.7388 41.3884 24.2771 41.0158 25.8154 41.0158H29.2131C28.9084 41.0189 28.6073 40.9521 28.3343 40.8209C28.0613 40.6897 27.8242 40.4979 27.6423 40.261C27.4604 40.024 27.339 39.7488 27.2878 39.4577C27.2366 39.1667 27.2572 38.868 27.3479 38.5861L29.2516 32.6796C29.6804 31.3734 31.584 31.3734 31.9936 32.6796L33.8972 38.5861C33.9857 38.8679 34.0047 39.1659 33.9526 39.4562C33.9006 39.7464 33.7789 40.0207 33.5975 40.2571C33.416 40.4935 33.1799 40.6853 32.908 40.817C32.6361 40.9488 32.336 41.0169 32.032 41.0158H35.4297C37.1603 41.0158 38.6986 41.3884 39.8524 42.5064L41.3907 43.8107C41.9675 44.3697 43.1212 43.997 43.3135 43.2517L48.1842 29.7002C47.8823 29.5232 47.6365 29.2691 47.4737 28.9658C47.3109 28.6624 47.2374 28.3215 47.2612 27.9804L47.3996 25.9848L47.3977 25.9681ZM9.47095 33.5627C9.4706 34.4655 9.80842 35.3376 10.4217 36.0172C11.0349 36.6968 11.8819 37.1375 12.8052 37.2576L12.4533 31.4535L12.461 31.7051C11.7438 31.7051 11.1189 31.3585 10.7035 30.8293C10.3149 31.1781 10.0048 31.601 9.79267 32.0713C9.58057 32.5417 9.47105 33.0494 9.47095 33.5627ZM48.9187 31.6995L48.5264 37.2445C49.2344 37.1367 49.8972 36.8394 50.44 36.386C50.9829 35.9327 51.3842 35.3413 51.5987 34.6788C51.8133 34.0162 51.8325 33.3087 51.6542 32.6361C51.4759 31.9635 51.1072 31.3526 50.5897 30.8722C50.232 31.3883 49.6629 31.692 48.9187 31.6995ZM24.8539 45.6739V48.4688C24.8539 50.1458 26.3922 51.6364 28.3151 51.6364C28.6997 51.6364 28.892 51.2637 28.892 51.0774V50.8911C28.892 49.9594 29.6611 49.2141 30.6226 49.2141C31.584 49.2141 32.3531 49.9594 32.3531 50.8911V51.0774C32.3531 51.4501 32.7377 51.6364 32.93 51.6364C34.6606 51.6364 36.3912 50.3321 36.3912 48.4688V45.6739C36.3912 44.7423 35.7259 43.997 34.4683 43.997H26.7768C25.5577 43.997 24.8539 44.7423 24.8539 45.6739Z" fill="#F3F3F3"/>
</svg>
