<svg width="61" height="60" viewBox="0 0 61 60" fill="none" xmlns="http://www.w3.org/2000/svg">
<g clip-path="url(#clip0_175944_137)">
<path fill-rule="evenodd" clip-rule="evenodd" d="M15.5 8.75C15.5 8.41848 15.6317 8.10054 15.8661 7.86612C16.1005 7.6317 16.4185 7.5 16.75 7.5H44.25C44.5815 7.5 44.8995 7.6317 45.1339 7.86612C45.3683 8.10054 45.5 8.41848 45.5 8.75V10H51.75C52.0815 10 52.3995 10.1317 52.6339 10.3661C52.8683 10.6005 53 10.9185 53 11.25V18.75C53 20.4076 52.3415 21.9973 51.1694 23.1694C49.9973 24.3415 48.4076 25 46.75 25H44.6463C42.72 30.45 37.7337 34.455 31.75 34.9487V42.5H40.5C40.8315 42.5 41.1495 42.6317 41.3839 42.8661C41.6183 43.1005 41.75 43.4185 41.75 43.75V51.25C41.75 51.5815 41.6183 51.8995 41.3839 52.1339C41.1495 52.3683 40.8315 52.5 40.5 52.5H20.5C20.1685 52.5 19.8505 52.3683 19.6161 52.1339C19.3817 51.8995 19.25 51.5815 19.25 51.25V43.75C19.25 43.4185 19.3817 43.1005 19.6161 42.8661C19.8505 42.6317 20.1685 42.5 20.5 42.5H29.25V34.9487C23.2675 34.455 18.28 30.45 16.3537 25H14.25C12.5924 25 11.0027 24.3415 9.83058 23.1694C8.65848 21.9973 8 20.4076 8 18.75V11.25C8 10.9185 8.1317 10.6005 8.36612 10.3661C8.60054 10.1317 8.91848 10 9.25 10H15.5V8.75ZM43 20V10H18V20C18 26.9037 23.5963 32.5 30.5 32.5C37.4037 32.5 43 26.9037 43 20ZM45.5 12.5V22.5H46.75C47.7446 22.5 48.6984 22.1049 49.4016 21.4017C50.1049 20.6984 50.5 19.7446 50.5 18.75V12.5H45.5ZM10.5 12.5H15.5V22.5H14.25C13.2554 22.5 12.3016 22.1049 11.5983 21.4017C10.8951 20.6984 10.5 19.7446 10.5 18.75V12.5ZM21.75 45V50H39.25V45H21.75Z" fill="#F3F3F3" stroke="#F3F3F3"/>
</g>
<defs>
<clipPath id="clip0_175944_137">
<rect width="60" height="60" fill="white" transform="translate(0.5)"/>
</clipPath>
</defs>
</svg>
