<svg width="60" height="60" viewBox="0 0 60 60" fill="none" xmlns="http://www.w3.org/2000/svg">
<path d="M37.5454 26.1005C37.4405 25.9494 37.3669 25.7795 37.3288 25.6003C37.2907 25.4212 37.2887 25.2364 37.3231 25.0565C37.3575 24.8767 37.4275 24.7052 37.5292 24.552C37.6308 24.3988 37.7621 24.2668 37.9156 24.1636L53.8703 13.4082C54.1801 13.1994 54.5616 13.1204 54.9306 13.1886C55.2996 13.2567 55.6261 13.4665 55.8381 13.7717C56.0501 14.0769 56.1303 14.4526 56.0611 14.816C55.9919 15.1795 55.7789 15.501 55.469 15.7098L39.512 26.4629C39.2024 26.6716 38.8213 26.7508 38.4525 26.6828C38.0837 26.6149 37.7574 26.4054 37.5454 26.1005ZM55.8487 45.8625C55.6366 46.1673 55.3103 46.3768 54.9415 46.4447C54.5727 46.5127 54.1916 46.4336 53.882 46.2248L32.0322 31.5049L21.4209 38.6558C22.249 40.4497 22.3661 42.4837 21.7493 44.3583C21.1325 46.2329 19.8263 47.8126 18.0873 48.7871C16.3484 49.7616 14.3023 50.0605 12.351 49.6251C10.3996 49.1898 8.68413 48.0515 7.54138 46.434C6.39863 44.8165 5.91122 42.8366 6.1749 40.8832C6.43858 38.9298 7.43429 37.1442 8.96645 35.8769C10.4986 34.6097 12.4565 33.9524 14.4555 34.0343C16.4546 34.1162 18.3503 34.9313 19.7703 36.3194C19.7841 36.3359 19.7991 36.3514 19.8151 36.3659L29.5256 29.8165L19.8245 23.2764L19.7703 23.3136C18.3524 24.7034 16.4582 25.521 14.4597 25.6058C12.4611 25.6906 10.5026 25.0365 8.96858 23.7719C7.43461 22.5073 6.43605 20.7236 6.16897 18.771C5.90189 16.8184 6.38559 14.838 7.5251 13.2187C8.66461 11.5994 10.3776 10.4581 12.3277 10.019C14.2778 9.57983 16.3241 9.87459 18.0649 10.8453C19.8056 11.8161 21.115 13.3927 21.736 15.2656C22.3569 17.1385 22.2446 19.1724 21.4209 20.9679L55.4667 43.9139C55.6227 44.0163 55.7565 44.1482 55.8604 44.3019C55.9642 44.4557 56.036 44.6282 56.0715 44.8095C56.1071 44.9908 56.1057 45.1772 56.0674 45.358C56.0291 45.5388 55.9548 45.7102 55.8487 45.8625ZM17.7801 21.3511C18.5054 20.6364 18.9992 19.726 19.1992 18.7349C19.3992 17.7439 19.2963 16.7167 18.9036 15.7832C18.5108 14.8497 17.8459 14.0518 16.9928 13.4905C16.1398 12.9292 15.1369 12.6296 14.1109 12.6296C13.085 12.6296 12.0821 12.9292 11.229 13.4905C10.376 14.0518 9.71105 14.8497 9.31833 15.7832C8.92561 16.7167 8.82274 17.7439 9.02271 18.7349C9.22268 19.726 9.71652 20.6364 10.4418 21.3511C10.9216 21.8291 11.493 22.2087 12.1228 22.4677C12.7527 22.7267 13.4284 22.8601 14.1109 22.8601C14.7935 22.8601 15.4692 22.7267 16.099 22.4677C16.7289 22.2087 17.3002 21.8291 17.7801 21.3511ZM19.2987 41.8934C19.2983 40.7113 18.8818 39.5659 18.1201 38.6524C17.3584 37.7389 16.2987 37.1137 15.1215 36.8835C13.9443 36.6532 12.7224 36.8321 11.6641 37.3896C10.6058 37.9472 9.77652 38.8489 9.31754 39.9411C8.85856 41.0333 8.79829 42.2485 9.147 43.3796C9.49571 44.5107 10.2318 45.4877 11.2299 46.1441C12.228 46.8006 13.4263 47.0959 14.6207 46.9798C15.8151 46.8636 16.9316 46.3432 17.7801 45.5071C18.263 45.0334 18.6459 44.4702 18.9065 43.8499C19.1672 43.2296 19.3005 42.5647 19.2987 41.8934Z" fill="#F3F3F3" stroke="#F3F3F3"/>
</svg>
