<svg width="25" height="24" viewBox="0 0 25 24" fill="none" xmlns="http://www.w3.org/2000/svg">
<path d="M12.5001 7.90063C11.6554 7.90063 10.8297 8.14109 10.1273 8.5916C9.425 9.04211 8.8776 9.68245 8.55435 10.4316C8.2311 11.1808 8.14652 12.0052 8.31131 12.8005C8.4761 13.5958 8.88286 14.3264 9.48015 14.8998C10.0774 15.4732 10.8384 15.8636 11.6669 16.0218C12.4953 16.18 13.3541 16.0988 14.1345 15.7885C14.9149 15.4782 15.5819 14.9527 16.0511 14.2785C16.5204 13.6042 16.7709 12.8115 16.7709 12.0006C16.7723 11.4618 16.6628 10.9281 16.4486 10.4301C16.2345 9.93203 15.9199 9.47953 15.5231 9.09855C15.1262 8.71756 14.6549 8.41561 14.1361 8.21003C13.6173 8.00446 13.0613 7.89931 12.5001 7.90063ZM12.5001 14.6706C11.95 14.6706 11.4123 14.514 10.9549 14.2206C10.4975 13.9273 10.141 13.5103 9.93054 13.0224C9.72003 12.5345 9.66496 11.9977 9.77227 11.4797C9.87959 10.9618 10.1445 10.4861 10.5334 10.1127C10.9224 9.73924 11.418 9.48495 11.9575 9.38193C12.497 9.27891 13.0562 9.33178 13.5644 9.53387C14.0726 9.73595 14.507 10.0782 14.8126 10.5173C15.1182 10.9563 15.2813 11.4725 15.2813 12.0006C15.2813 12.7088 14.9883 13.3879 14.4667 13.8886C13.9451 14.3893 13.2377 14.6706 12.5001 14.6706ZM17.948 7.73063C17.948 7.92841 17.8869 8.12175 17.7724 8.2862C17.658 8.45064 17.4953 8.57882 17.305 8.6545C17.1146 8.73019 16.9052 8.75 16.7031 8.71141C16.501 8.67282 16.3154 8.57758 16.1698 8.43773C16.0241 8.29788 15.9249 8.1197 15.8847 7.92572C15.8445 7.73173 15.8651 7.53067 15.944 7.34794C16.0228 7.16522 16.1563 7.00904 16.3276 6.89916C16.4989 6.78927 16.7003 6.73063 16.9063 6.73063C17.1826 6.73063 17.4475 6.83598 17.6429 7.02352C17.8383 7.21106 17.948 7.46541 17.948 7.73063ZM20.7709 8.73062C20.8024 7.48726 20.3191 6.28262 19.4272 5.38063C18.9644 4.95121 18.418 4.6136 17.8193 4.3871C17.2205 4.1606 16.5811 4.04966 15.9376 4.06062C14.5834 4.00062 10.4167 4.00062 9.06258 4.06062C7.768 4.03371 6.51443 4.49713 5.573 5.35062C4.68101 6.25262 4.19781 7.45726 4.22925 8.70062C4.16675 10.0006 4.16675 14.0006 4.22925 15.3006C4.19781 16.544 4.68101 17.7486 5.573 18.6506C6.51443 19.5041 7.768 19.9675 9.06258 19.9406C10.4376 20.0206 14.5626 20.0206 15.9376 19.9406C17.2328 19.9708 18.4876 19.5069 19.4272 18.6506C20.3191 17.7486 20.8024 16.544 20.7709 15.3006C20.8334 14.0006 20.8334 10.0006 20.7709 8.70062V8.73062ZM19.0001 16.7306C18.8587 17.0746 18.6451 17.3869 18.3728 17.6484C18.1004 17.9099 17.775 18.1149 17.4167 18.2506C15.7997 18.5645 14.1465 18.6721 12.5001 18.5706C10.8571 18.6712 9.20752 18.5636 7.59383 18.2506C7.23556 18.1149 6.91016 17.9099 6.6378 17.6484C6.36544 17.3869 6.15193 17.0746 6.0105 16.7306C5.573 15.6706 5.66675 13.1706 5.66675 12.0106C5.66675 10.8506 5.573 8.34062 6.0105 7.29063C6.14794 6.94329 6.35993 6.62759 6.6327 6.364C6.90547 6.10042 7.23294 5.89484 7.59383 5.76063C9.20752 5.44765 10.8571 5.34005 12.5001 5.44063C14.1465 5.33917 15.7997 5.44677 17.4167 5.76063C17.775 5.8964 18.1004 6.10137 18.3728 6.36284C18.6451 6.6243 18.8587 6.93669 19.0001 7.28063C19.4376 8.34063 19.3334 10.8406 19.3334 12.0006C19.3334 13.1606 19.4376 15.6706 19.0001 16.7206V16.7306Z" fill="#E6E6E6"/>
</svg>
